PathFileType	4	(X/Y/Z)	C:/Users/beibeiliu/ov580/test_trc/User3\sequence.25_training_dense_left.trc
DataRate	CameraRate	NumFrames	NumMarkers	Units	OrigDataRate	OrigDataStartFrame	OrigNumFrames
120	120	13	19	mm	120	1	274
Frame#	Time	ThumbCMC			ThumbMCP			ThumbIP			ThumbTip			IndexMCP			IndexPIP			IndexTip			MiddleMCP			MiddlePIP			MiddleTip			RingMCP			RingPIP			RingTip			PinkyMCP			PinkyPIP			PinkyTip			BackHand1			BackHand2			BackHand3	
		X0	Y0	Z0	X1	Y1	Z1	X2	Y2	Z2	X3	Y3	Z3	X4	Y4	Z4	X5	Y5	Z5	X6	Y6	Z6	X7	Y7	Z7	X8	Y8	Z8	X9	Y9	Z9	X10	Y10	Z10	X11	Y11	Z11	X12	Y12	Z12	X13	Y13	Z13	X14	Y14	Z14	X15	Y15	Z15	X16	Y16	Z16	X17	Y17	Z17	X18	Y18	Z18	
0	0	-147.296	-23.1057	20.5587	-128.859	-25.1342	-1.16929	-108.918	-24.9268	-24.6897	-96.6528	-27.9666	-46.6643	-163.864	-10.289	-58.1583	-156.54	-12.93	-84.6351	-152.293	-21.533	-114.975	-186.605	-9.35525	-65.6896	-186.852	-12.8995	-94.6691	-186.996	-25.1991	-125.294	-204.444	-15.6232	-60.5295	-207.456	-17.8134	-82.8149	-210.645	-28.2053	-109.173	-227.027	-24.1115	-44.0944	-231.145	-26.334	-63.2946	-231.774	-31.6626	-88.6876	-206.62	-4.97993	-9.10399	-209.185	-5.28518	25.6684	-175.797	-2.30322	7.1471	
1	0.00833333	-149.216	-23.4411	17.5825	-128.471	-23.8765	-2.75704	-114.391	-26.1315	-26.4763	-98.1087	-29.2078	-47.2459	-165.276	-9.79133	-60.1299	-158.995	-12.6256	-89.403	-155.108	-22.2622	-116.094	-186.866	-9.22449	-68.652	-186.599	-12.4634	-92.6743	-187.766	-25.534	-125.638	-209.903	-15.3252	-58.7556	-207.449	-18.1658	-83.5209	-210.922	-29.6923	-114.38	-225.221	-25.2124	-40.5689	-232.427	-26.7296	-68.6472	-235.723	-30.6334	-88.0942	-209.746	-6.68776	-5.67497	-208.997	-4.25291	22.732	-175.752	-2.9969	4.94564	
2	0.0166667	-149.893	-24.2355	19.186	-130.945	-25.1455	-0.598043	-110.827	-25.7839	-28.9902	-100.976	-30.2447	-43.6124	-160.702	-10.2011	-63.6794	-159.711	-13.3056	-87.1772	-151.699	-20.7992	-112.126	-189.832	-9.10856	-65.3405	-187.402	-13.2222	-93.8426	-184.965	-24.7102	-124.238	-205.414	-15.2956	-56.7116	-208.436	-19.7588	-87.822	-212.225	-30.5157	-113.146	-227.347	-24.1491	-41.6703	-233.166	-27.1432	-66.3308	-234.225	-33.0083	-87.8042	-211.112	-6.18651	-6.21711	-208.879	-5.97918	22.3534	-177.969	-3.55036	7.62701	
3	0.025	-146.728	-22.2089	14.8407	-131.324	-24.6481	-3.77327	-112.749	-26.1737	-27.2835	-99.9011	-30.2765	-41.8226	-163.605	-10.5366	-63.2193	-155.412	-13.2613	-90.326	-157.142	-20.9065	-111.193	-187.503	-8.9758	-63.9844	-187.665	-13.3427	-95.8767	-187.494	-25.0622	-124.77	-205.198	-14.8215	-59.3118	-209.328	-19.2083	-86.4501	-210.033	-27.8621	-108.732	-222.953	-24.8608	-40.2945	-229.045	-24.9189	-65.7916	-235.103	-30.1994	-88.0511	-209.407	-6.72149	-9.15713	-212.779	-5.4856	21.3223	-176.62	-2.5251	4.60311	
4	0.0333333	-151.005	-23.8879	18.0908	-129.788	-23.9438	-5.39454	-110.158	-25.7449	-25.6565	-97.0179	-29.3134	-43.1988	-160.909	-9.67863	-59.7511	-157.078	-12.0171	-85.5691	-152.195	-19.688	-111.071	-185.301	-7.74311	-69.6563	-184.672	-14.2888	-97.9594	-184.647	-23.6527	-123.575	-209.787	-16.1577	-58.4565	-207.993	-18.7404	-87.8783	-211.668	-30.211	-112.62	-228.356	-24.8836	-42.7844	-227.797	-25.4034	-64.2832	-235.093	-30.2231	-88.249	-210.264	-5.24975	-8.38159	-207.105	-4.34148	19.9093	-177.289	-3.54213	4.49003	
5	0.0416667	-150.261	-22.8523	14.1054	-130.91	-23.5961	-4.57312	-112.379	-24.7578	-29.5123	-96.6007	-28.6815	-44.3763	-160.197	-9.85456	-58.5619	-159.759	-13.495	-89.6406	-152.927	-20.4452	-111.024	-189.221	-9.08381	-68.5537	-185.333	-12.9601	-95.3027	-187.497	-24.7233	-124.313	-210.289	-15.893	-58.4619	-210.983	-19.2192	-87.3575	-213.175	-28.7925	-109.74	-226.06	-23.7906	-42.192	-228.191	-25.3087	-62.3606	-235.048	-32.0762	-86.9549	-206.849	-5.39802	-4.90687	-209.354	-5.3616	22.0146	-173.979	-3.21817	5.82815	
6	0.05	-148.088	-22.1197	14.6468	-128.512	-23.2299	-5.0897	-113.802	-27.2092	-25.5583	-99.6455	-29.1822	-43.808	-164.253	-10.232	-63.9129	-156.465	-13.38	-85.5482	-155.295	-21.1086	-111.384	-190.412	-9.18395	-69.1173	-185.478	-12.6545	-93.0912	-185.943	-24.1292	-126.538	-205.766	-15.7401	-56.3803	-209.838	-18.8889	-84.4809	-209.686	-28.5146	-113.762	-228.51	-24.3929	-42.5813	-230.793	-26.3118	-68.0019	-234.77	-31.697	-88.8597	-205.869	-7.49307	-4.77731	-210.954	-5.48106	23.6748	-177.518	-1.9482	7.16449	
7	0.0583333	-148.981	-22.2	19.1266	-129.938	-24.0803	-2.41063	-110.334	-24.1565	-28.5693	-96.5221	-27.9603	-42.7377	-163.597	-9.54296	-62.7931	-155.959	-14.3524	-90.3972	-156.31	-20.8084	-111.902	-189.054	-9.21659	-69.003	-186.981	-13.3271	-94.1022	-182.853	-25.8477	-128.937	-206.207	-15.5102	-57.8282	-212.8	-19.765	-84.9652	-212.88	-28.7834	-110.048	-228.566	-23.1612	-44.8526	-230.085	-25.9042	-64.4562	-233.953	-32.9671	-91.5459	-211.862	-7.45609	-4.81862	-211.344	-5.46337	21.5958	-175.184	-0.740308	5.93544	
8	0.0666667	-149.424	-22.6523	15.7659	-130.923	-23.9178	-5.74868	-114.862	-25.6121	-27.9583	-98.4523	-27.485	-47.3303	-163.895	-9.65558	-60.7155	-157.545	-13.7722	-91.498	-151.088	-22.8371	-116.014	-188.855	-8.7546	-65.8347	-189.986	-14.0304	-97.8814	-185.767	-25.4944	-126.606	-208.638	-15.4333	-59.6646	-212.533	-19.2162	-84.8371	-209.841	-29.3932	-112.847	-229.027	-24.7839	-40.5299	-230.356	-25.8308	-63.5172	-235.237	-32.2988	-89.72	-209.546	-7.85524	-6.91405	-212.158	-6.50366	24.2534	-177.262	-3.31772	6.48645	
9	0.075	-151.743	-23.1516	17.2235	-127.276	-23.3628	-4.35291	-110.408	-24.8234	-25.1394	-101.103	-30.1367	-44.2762	-162.557	-10.1078	-62.0013	-159.987	-12.9445	-87.0427	-154.721	-21.2053	-113.861	-187.203	-8.47761	-68.392	-185.445	-12.8265	-95.9759	-184.551	-25.0918	-125.29	-205.396	-14.5187	-60.8997	-213.375	-18.1901	-83.4974	-211.548	-29.2214	-111.162	-224.508	-24.684	-40.0291	-231.7	-26.2171	-66.4301	-233.61	-32.4873	-88.795	-212.32	-7.27672	-6.41734	-212.05	-5.14189	19.9678	-176.331	-2.69992	7.0711	
10	0.0833333	-149.392	-21.8379	15.6888	-129.45	-23.6445	-3.83928	-111.837	-25.6815	-27.4069	-97.7105	-28.6903	-45.6018	-164.713	-10.5361	-62.9427	-157.069	-13.5925	-87.6076	-155.269	-22.7552	-115.438	-188.149	-8.55985	-69.7888	-185.891	-13.4699	-94.5124	-187.871	-25.446	-124.661	-211.401	-16.0714	-58.6941	-212.486	-18.318	-83.6354	-210.822	-28.6843	-112.607	-224.472	-24.6086	-40.4577	-231.111	-25.2678	-65.8069	-233.78	-32.4705	-88.048	-211.794	-7.13067	-5.78758	-211.054	-6.23623	19.2828	-178.222	-1.86624	6.32422	
11	0.0916667	-152.349	-24.3652	18.1373	-126.814	-23.712	-1.77342	-110.177	-25.0954	-25.727	-101.598	-29.7158	-45.125	-162.967	-9.67073	-63.0048	-156.977	-13.8841	-89.8029	-155.527	-21.7282	-111.66	-187.903	-8.33441	-66.4826	-188.006	-13.1898	-96.3793	-185.853	-26.6971	-127.951	-209.465	-15.6995	-56.5682	-208.698	-17.9263	-83.1294	-212.299	-28.1244	-109.24	-223.35	-22.8535	-45.4812	-228.976	-25.687	-63.6486	-236.1	-33.0993	-89.8075	-211.473	-5.59242	-7.29035	-213.309	-5.99341	21.796	-174.998	-3.6368	5.11605	
12	0.1	-152.645	-21.7074	14.0338	-132.407	-24.7786	-4.66499	-110.618	-25.5621	-26.9043	-99.6426	-28.5775	-46.0962	-162.497	-7.49862	-63.8107	-155.423	-12.068	-88.8286	-154.252	-21.5767	-110.468	-186.205	-6.83123	-68.2719	-187.16	-13.5418	-97.7009	-186.067	-26.8749	-123.965	-210.846	-14.2909	-58.2787	-207.007	-18.0128	-86.7101	-209.671	-30.4574	-110.722	-226.968	-24.3391	-41.572	-230.726	-25.8237	-63.4221	-233.817	-32.1748	-91.2219	-207.436	-6.67316	-8.50833	-210.998	-6.95126	24.3193	-177.656	-3.31264	8.0971	
